#define cpu_width 15
#define cpu_height 15
static unsigned char cpu_bits[] = {
   0x50, 0x05, 0x50, 0x05, 0x00, 0x00, 0xf8, 0x0f, 0x0b, 0x68, 0x08, 0x08,
   0x0b, 0x68, 0x08, 0x08, 0x0b, 0x68, 0x08, 0x08, 0x0b, 0x68, 0xf8, 0x0f,
   0x00, 0x00, 0x50, 0x05, 0x50, 0x05 };
