#define gpu_width 15
#define gpu_height 15
static unsigned char gpu_bits[] = {
   0x00, 0x00, 0xff, 0x7f, 0x01, 0x40, 0x01, 0x40, 0x01, 0x40, 0x01, 0x40,
   0x01, 0x40, 0x01, 0x40, 0x01, 0x40, 0x01, 0x40, 0x01, 0x40, 0xff, 0x7f,
   0xc0, 0x01, 0xf8, 0x0f, 0x00, 0x00 };
