#define ip_width 15
#define ip_height 15
static unsigned char ip_bits[] = {
   0xff, 0x7f, 0x01, 0x40, 0x01, 0x40, 0x01, 0x40, 0x59, 0x4d, 0x59, 0x4d,
   0xf9, 0x4f, 0xf9, 0x4f, 0xf9, 0x4f, 0xf9, 0x4f, 0xf1, 0x47, 0xc1, 0x41,
   0x01, 0x40, 0x01, 0x40, 0xff, 0x7f };
