#define power_bat40_width 15
#define power_bat40_height 15
static unsigned char power_bat40_bits[] = {
   0x00, 0x00, 0x00, 0x00, 0x00, 0x00, 0x00, 0x00, 0xff, 0x3f, 0x01, 0x20,
   0x3d, 0x60, 0x3d, 0x60, 0x3d, 0x60, 0x01, 0x20, 0xff, 0x3f, 0x00, 0x00,
   0x00, 0x00, 0x00, 0x00, 0x00, 0x00 };
