#define time_width 15
#define time_height 15
static unsigned char time_bits[] = {
   0xe0, 0x03, 0x18, 0x0c, 0x04, 0x10, 0x82, 0x20, 0x82, 0x20, 0x81, 0x40,
   0x81, 0x40, 0x81, 0x4f, 0x01, 0x40, 0x01, 0x40, 0x02, 0x20, 0x02, 0x20,
   0x04, 0x10, 0x18, 0x0c, 0xe0, 0x03 };
