#define volume0_width 15
#define volume0_height 15
static unsigned char volume0_bits[] = {
   0x00, 0x00, 0x00, 0x00, 0x80, 0x00, 0xe0, 0x00, 0xf0, 0x00, 0xff, 0x22,
   0xff, 0x14, 0xff, 0x08, 0xff, 0x14, 0xff, 0x22, 0xf0, 0x00, 0xe0, 0x00,
   0x80, 0x00, 0x00, 0x00, 0x00, 0x00 };
