#define volume_width 15
#define volume_height 15
static unsigned char volume_bits[] = {
   0x00, 0x00, 0x00, 0x00, 0x80, 0x00, 0xe0, 0x20, 0xf0, 0x20, 0xff, 0x48,
   0xff, 0x52, 0xff, 0x54, 0xff, 0x52, 0xff, 0x48, 0xf0, 0x20, 0xe0, 0x20,
   0x80, 0x00, 0x00, 0x00, 0x00, 0x00 };
