#define volume66_width 15
#define volume66_height 15
static unsigned char volume66_bits[] = {
   0x00, 0x00, 0x00, 0x00, 0x80, 0x00, 0xe0, 0x00, 0xf0, 0x00, 0xff, 0x08,
   0xff, 0x12, 0xff, 0x14, 0xff, 0x12, 0xff, 0x08, 0xf0, 0x00, 0xe0, 0x00,
   0x80, 0x00, 0x00, 0x00, 0x00, 0x00 };
