#define wifi_width 15
#define wifi_height 15
static unsigned char wifi_bits[] = {
   0xff, 0x7f, 0xff, 0x7f, 0x00, 0x00, 0x00, 0x00, 0xfc, 0x1f, 0xfc, 0x1f,
   0x00, 0x00, 0x00, 0x00, 0xf0, 0x07, 0xf0, 0x07, 0x00, 0x00, 0x00, 0x00,
   0xc0, 0x01, 0xc0, 0x01, 0xc0, 0x01 };
