#define power_cor_width 15
#define power_cor_height 15
static unsigned char power_cor_bits[] = {
   0xc0, 0x1f, 0xe0, 0x0f, 0xe0, 0x07, 0xf0, 0x03, 0xf0, 0x01, 0xf8, 0x00,
   0x78, 0x00, 0x3c, 0x00, 0xfc, 0x03, 0xc0, 0x01, 0xe0, 0x00, 0x60, 0x00,
   0x30, 0x00, 0x10, 0x00, 0x08, 0x00 };
