#define power_bat90_width 15
#define power_bat90_height 15
static unsigned char power_bat90_bits[] = {
   0x00, 0x00, 0x00, 0x00, 0x00, 0x00, 0x00, 0x00, 0xff, 0x3f, 0x01, 0x20,
   0xfd, 0x67, 0xfd, 0x67, 0xfd, 0x67, 0x01, 0x20, 0xff, 0x3f, 0x00, 0x00,
   0x00, 0x00, 0x00, 0x00, 0x00, 0x00 };
