#define volume33_width 15
#define volume33_height 15
static unsigned char volume33_bits[] = {
   0x00, 0x00, 0x00, 0x00, 0x80, 0x00, 0xe0, 0x00, 0xf0, 0x00, 0xff, 0x00,
   0xff, 0x02, 0xff, 0x04, 0xff, 0x02, 0xff, 0x00, 0xf0, 0x00, 0xe0, 0x00,
   0x80, 0x00, 0x00, 0x00, 0x00, 0x00 };
